<?xml version="1.0" encoding="utf-8"?>
<!-- Generator: Adobe Illustrator 16.0.0, SVG Export Plug-In . SVG Version: 6.00 Build 0)  -->
<!DOCTYPE svg PUBLIC "-//W3C//DTD SVG 1.1//EN" "http://www.w3.org/Graphics/SVG/1.1/DTD/svg11.dtd">
<svg version="1.1" id="Layer_2" xmlns="http://www.w3.org/2000/svg" xmlns:xlink="http://www.w3.org/1999/xlink" x="0px" y="0px"
	 width="1024px" height="200px" viewBox="0 0 1024 200" enable-background="new 0 0 1024 200" xml:space="preserve">
<g>
	<g>
		<g>
			<path fill="#343A40" d="M231.645,101.175c0,15.171-4.691,30.655-14.39,40.979c-9.385,10.32-23.146,15.172-37.693,15.172h-38.945
				V44.71h39.258c15.172,0,27.997,5.006,37.069,15.017C227.109,70.518,231.645,85.534,231.645,101.175z M211.781,101.175
				c0-10.949-2.347-21.43-8.915-29.094c-6.256-7.038-13.764-9.229-23.148-9.541l-19.862,0.156v76.798l19.707,0.156
				c9.07-0.314,17.36-3.131,23.147-9.541C209.435,122.445,211.625,112.279,211.781,101.175z"/>
			<path fill="#343A40" d="M270.433,42.991v17.36h-18.77v-17.36H270.433z M270.433,72.864v84.461h-18.77V72.864H270.433z"/>
			<path fill="#343A40" d="M371.469,116.502v40.822h-19.082v-40.041c0-9.854-1.251-19.238-6.726-24.242
				c-3.285-3.284-8.133-5.006-14.077-4.85c-4.223,0.155-7.977,1.407-11.105,3.909c-3.281,2.659-5.631,6.728-6.565,11.729
				c-0.938,4.065-0.938,10.479-0.938,16.58v0.155v36.756H294.05V72.864h16.579v9.541c0.626-0.625,1.251-1.408,1.877-2.188
				c5.478-6.413,13.92-9.229,21.584-9.541c9.541-0.626,19.396,0.938,27.215,8.444C371.158,88.036,371.469,102.895,371.469,116.502z"
				/>
			<path fill="#343A40" d="M412.136,134.177c3.911,5.161,10.167,7.819,17.049,7.819c5.161,0,9.541-1.25,12.982-3.91
				c3.441-2.658,5.474-5.316,6.725-8.133l18.613,5.631c-2.972,7.037-8.29,13.451-14.856,17.674
				c-6.413,4.066-14.701,6.412-22.521,6.412c-12.513,0-25.338-4.848-32.846-14.074c-6.883-8.447-10.167-18.928-10.167-29.563
				c0-12.043,3.284-23.307,10.167-31.597c7.664-9.229,19.395-13.92,31.903-13.92c12.356,0,22.366,4.065,30.03,13.295
				c8.133,9.697,10.323,22.366,9.229,36.601h-60.999C407.914,125.418,409.165,130.423,412.136,134.177z M412.292,94.606
				c-2.502,3.283-3.91,6.88-4.536,10.947h41.761c-0.313-4.379-1.404-8.133-3.906-11.574c-3.758-4.691-10.014-7.037-16.427-7.037
				C422.928,86.942,416.829,88.974,412.292,94.606z"/>
		</g>
		<g>
			<path fill="#343A40" d="M598.104,105.396l-0.15,51.929h-11.268v-51.459c0-9.383-0.469-15.015-6.881-20.332
				c-3.281-2.973-7.664-4.69-12.195-4.69c-6.104,0-11.73,2.657-15.328,7.192c-3.91,4.692-4.535,9.387-4.535,14.858v2.502v51.929
				h-11.418l0.156-51.459c0-9.383-0.475-15.015-6.887-20.332c-3.281-2.973-7.816-4.69-12.354-4.69
				c-5.945,0-11.576,2.657-15.329,7.192c-3.754,4.693-4.379,9.387-4.379,14.858v54.431h-11.574V72.864h10.323v9.229
				c5.315-7.354,14.39-11.418,23.461-11.418c6.256,0,13.295,1.877,18.455,6.256c3.129,2.503,5.162,5.162,6.568,7.978l1.406-2.188
				c5.318-7.665,14.393-12.044,23.932-12.044c6.258,0,13.297,1.877,18.457,6.256C597.791,84.595,598.104,93.042,598.104,105.396z"/>
			<path fill="#343A40" d="M632.357,138.87c4.85,6.412,12.979,9.854,21.428,9.854c5.941,0,11.418-1.408,16.107-4.382
				c4.383-2.972,7.82-6.882,10.322-11.888l10.793,4.064c-3.438,7.664-8.916,13.605-15.328,17.52
				c-6.411,3.754-14.074,5.631-21.584,5.631c-12.043,0-23.771-4.689-30.813-13.764c-7.039-8.914-9.541-19.863-9.541-30.5
				c0-11.104,2.502-22.365,9.541-31.281c7.352-9.071,18.299-13.606,30.5-13.606c12.043,0,22.365,4.224,29.717,13.451
				c7.354,9.227,9.385,21.431,9.072,34.409H626.1C626.414,125.886,628.135,133.239,632.357,138.87z M632.514,90.696
				c-3.91,5.004-5.631,11.26-6.256,17.83h54.273c-0.473-7.039-1.877-12.979-5.787-17.984C670.053,84.283,661.918,81,653.785,81
				C645.496,80.999,637.52,84.125,632.514,90.696z"/>
			<path fill="#343A40" d="M730.113,126.355c0,7.039-0.473,11.418,1.719,15.172c1.721,3.91,5.787,5.943,10.168,6.412
				c4.379,0.313,9.541,0.156,13.92-0.625v10.011c-5.475,1.407-12.67,1.563-18.143,0.782c-7.512-1.098-12.826-4.226-16.426-10.637
				c-3.129-5.943-2.813-12.515-2.813-20.804v-43.95h-17.988v-9.854h17.988v-23.46h11.574v23.461h25.807v9.854h-25.807V126.355
				L730.113,126.355z"/>
			<path fill="#343A40" d="M821.299,72.082v11.104c-3.598-1.406-7.664-2.031-12.201-1.877c-6.725,0.156-12.668,2.503-16.73,6.413
				c-7.979,7.508-8.133,17.205-8.133,29.403v40.197H772.66V72.864h10.322v12.668c1.721-2.972,4.063-5.474,7.035-7.977
				c5.479-4.691,12.824-6.882,19.863-7.038C813.791,70.518,817.545,70.987,821.299,72.082z"/>
			<path fill="#343A40" d="M849.139,45.024v12.825h-11.418V45.024H849.139z M849.139,72.864v84.461h-11.418V72.864H849.139z"/>
			<path fill="#343A40" d="M931.721,97.577c-1.719-4.69-5.313-9.229-9.539-11.887c-4.225-2.972-9.229-4.224-14.547-4.224
				c-8.441,0-16.105,3.284-20.959,9.854c-5.004,6.412-6.412,15.172-6.564,23.772c0.152,8.604,1.563,17.36,6.564,23.772
				c4.854,6.411,12.518,9.854,20.959,9.854c5.318,0,10.48-1.252,14.859-4.224c4.223-2.658,7.037-6.568,9.07-11.262l11.418,3.283
				c-2.814,6.883-7.354,13.141-13.295,17.051c-6.412,4.223-13.295,6.1-22.055,6.1c-12.67,0-22.991-4.379-30.188-13.764
				c-7.195-9.072-9.385-20.021-9.541-30.813c0.156-11.104,2.502-22.054,9.541-30.97c7.352-9.229,17.518-13.606,30.344-13.606
				c7.979,0,14.545,1.563,20.957,5.474c6.414,4.067,11.889,10.324,14.232,17.832L931.721,97.577z"/>
			<path fill="#343A40" d="M1012.738,97.733c-4.379-11.418-13.451-16.578-24.711-16.734c-10.324-0.313-20.18,4.224-20.18,12.199
				c0,7.039,5.16,9.854,13.766,12.198c4.381,1.252,9.695,2.66,17.359,4.691c14.076,3.754,25.025,11.889,25.025,24.868
				c0,7.194-4.223,15.017-10.793,18.926c-6.568,4.382-14.857,5.632-23.148,5.632c-9.854,0-18.609-2.188-26.273-9.229
				c-4.535-4.38-7.508-9.854-9.229-14.703l10.479-3.438c1.563,4.065,3.598,7.508,6.883,10.637
				c4.691,4.224,11.262,6.257,18.143,6.257c5.787,0,13.143-1.252,17.205-4.065c3.602-2.349,5.631-5.941,5.631-10.166
				c0-8.289-7.977-11.418-17.355-14.076c-7.98-2.349-12.201-3.438-17.361-5.006c-5.316-1.722-11.104-3.754-15.482-7.979
				c-4.227-3.752-5.943-9.539-5.943-14.389c0-8.604,6.1-16.109,13.764-19.552c6.104-2.815,12.199-3.44,17.986-3.284
				c5.943,0,12.201,1.251,17.832,4.065c7.977,4.066,15.17,12.355,17.518,20.333L1012.738,97.733z"/>
		</g>
	</g>
	<g>
		<path fill="#343A40" d="M108.861,67.835c0,3.718,0,54.366,0,57.741c0,29.803-24.159,53.959-53.961,53.959h-0.938
			C24.16,179.536,0,155.379,0,125.577C0,95.78,24.16,71.621,53.961,71.621c9.385,0,18.209,2.396,25.898,6.609v30.638
			c-5.371-7.951-15.578-13.181-25.898-13.181c-16.511,0-29.893,13.383-29.893,29.896s13.385,29.894,29.893,29.894H54.9
			c16.511,0,30.104-13.177,30.104-29.681l-0.021-74.152C84.983,51.635,108.861,51.623,108.861,67.835z"/>
		<g>
			<circle fill="#F85168" cx="53.961" cy="125.579" r="11.887"/>
			<ellipse fill="#F85168" cx="96.878" cy="35.012" rx="11.887" ry="11.887"/>
		</g>
	</g>
</g>
</svg>
