<?xml version="1.0" encoding="utf-8"?>
<!-- Generator: Adobe Illustrator 16.0.0, SVG Export Plug-In . SVG Version: 6.00 Build 0)  -->
<!DOCTYPE svg PUBLIC "-//W3C//DTD SVG 1.1//EN" "http://www.w3.org/Graphics/SVG/1.1/DTD/svg11.dtd">
<svg version="1.1" id="Layer_2" xmlns="http://www.w3.org/2000/svg" xmlns:xlink="http://www.w3.org/1999/xlink" x="0px" y="0px"
	 width="1024px" height="200px" viewBox="0 1.331 1024 200" enable-background="new 0 1.331 1024 200" xml:space="preserve">
<g>
	<g>
		<g>
			<path fill="#FFF6F7" d="M231.645,101.175c0,15.171-4.691,30.655-14.39,40.979c-9.385,10.321-23.146,15.172-37.693,15.172h-38.945
				V44.711h39.258c15.172,0,27.997,5.006,37.069,15.016C227.109,70.518,231.645,85.534,231.645,101.175z M211.781,101.175
				c0-10.949-2.347-21.43-8.915-29.094c-6.256-7.037-13.764-9.229-23.148-9.541l-19.862,0.156v76.798l19.707,0.156
				c9.07-0.314,17.36-3.13,23.147-9.541C209.435,122.446,211.625,112.28,211.781,101.175z"/>
			<path fill="#FFF6F7" d="M270.433,42.991v17.361h-18.77V42.991H270.433z M270.433,72.866v84.459h-18.77V72.866H270.433z"/>
			<path fill="#FFF6F7" d="M371.469,116.502v40.822h-19.082v-40.041c0-9.854-1.251-19.238-6.726-24.242
				c-3.285-3.284-8.133-5.006-14.077-4.85c-4.223,0.155-7.977,1.407-11.105,3.909c-3.283,2.659-5.631,6.728-6.567,11.729
				c-0.938,4.066-0.938,10.479-0.938,16.58v0.156v36.756h-18.925V72.864h16.579v9.541c0.626-0.625,1.251-1.408,1.877-2.188
				c5.476-6.412,13.92-9.229,21.584-9.541c9.541-0.625,19.396,0.938,27.215,8.444C371.158,88.036,371.469,102.894,371.469,116.502z"
				/>
			<path fill="#FFF6F7" d="M412.136,134.177c3.911,5.161,10.167,7.819,17.049,7.819c5.161,0,9.541-1.25,12.982-3.91
				c3.441-2.658,5.474-5.317,6.725-8.133l18.613,5.631c-2.972,7.037-8.29,13.451-14.858,17.674
				c-6.413,4.066-14.701,6.412-22.521,6.412c-12.513,0-25.338-4.848-32.846-14.075c-6.883-8.446-10.167-18.927-10.167-29.562
				c0-12.043,3.284-23.307,10.167-31.597c7.664-9.229,19.395-13.92,31.905-13.92c12.356,0,22.366,4.066,30.03,13.295
				c8.133,9.697,10.323,22.366,9.229,36.601h-60.999C407.914,125.418,409.165,130.423,412.136,134.177z M412.292,94.606
				c-2.502,3.283-3.91,6.881-4.536,10.947h41.761c-0.313-4.379-1.406-8.133-3.908-11.574c-3.756-4.691-10.012-7.037-16.425-7.037
				C422.928,86.942,416.829,88.974,412.292,94.606z"/>
		</g>
		<g>
			<path fill="#FFF6F7" d="M598.104,105.397l-0.152,51.928h-11.266v-51.459c0-9.383-0.469-15.015-6.881-20.332
				c-3.283-2.973-7.664-4.69-12.197-4.69c-6.104,0-11.73,2.657-15.328,7.192c-3.91,4.692-4.535,9.387-4.535,14.858v2.503v51.928
				h-11.418l0.156-51.459c0-9.383-0.473-15.015-6.885-20.332c-3.283-2.973-7.818-4.69-12.354-4.69
				c-5.945,0-11.576,2.657-15.329,7.192c-3.754,4.693-4.379,9.387-4.379,14.859v54.43h-11.574V72.866h10.323v9.229
				c5.317-7.352,14.39-11.418,23.461-11.418c6.256,0,13.295,1.877,18.455,6.257c3.129,2.503,5.162,5.161,6.568,7.978l1.408-2.188
				c5.318-7.664,14.391-12.044,23.93-12.044c6.258,0,13.297,1.877,18.457,6.257C597.791,84.595,598.104,93.042,598.104,105.397z"/>
			<path fill="#FFF6F7" d="M632.357,138.87c4.85,6.412,12.98,9.854,21.428,9.854c5.943,0,11.418-1.408,16.109-4.38
				c4.381-2.972,7.82-6.882,10.322-11.888l10.793,4.065c-3.439,7.664-8.916,13.606-15.328,17.519
				c-6.412,3.754-14.076,5.631-21.584,5.631c-12.043,0-23.773-4.691-30.813-13.764c-7.039-8.914-9.541-19.863-9.541-30.5
				c0-11.104,2.502-22.365,9.541-31.281c7.352-9.07,18.299-13.606,30.5-13.606c12.043,0,22.365,4.224,29.717,13.451
				s9.385,21.429,9.072,34.409H626.1C626.414,125.886,628.135,133.239,632.357,138.87z M632.514,90.696
				c-3.91,5.004-5.631,11.26-6.256,17.83h54.273c-0.471-7.039-1.877-12.98-5.787-17.986c-4.691-6.258-12.826-9.541-20.959-9.541
				C645.496,80.999,637.52,84.125,632.514,90.696z"/>
			<path fill="#FFF6F7" d="M730.113,126.356c0,7.038-0.471,11.418,1.719,15.172c1.721,3.91,5.787,5.942,10.168,6.412
				c4.379,0.313,9.541,0.156,13.92-0.625v10.01c-5.475,1.408-12.67,1.563-18.143,0.783c-7.51-1.097-12.826-4.225-16.424-10.638
				c-3.129-5.942-2.814-12.513-2.814-20.802v-43.95h-17.988v-9.854h17.988V49.403h11.574v23.461h25.807v9.854h-25.807V126.356
				L730.113,126.356z"/>
			<path fill="#FFF6F7" d="M821.299,72.082v11.105c-3.598-1.407-7.664-2.032-12.201-1.878c-6.725,0.156-12.668,2.503-16.732,6.413
				c-7.979,7.508-8.133,17.205-8.133,29.403v40.197h-11.574V72.864h10.322v12.668c1.721-2.972,4.064-5.474,7.037-7.976
				c5.477-4.692,12.824-6.883,19.863-7.039C813.791,70.518,817.545,70.989,821.299,72.082z"/>
			<path fill="#FFF6F7" d="M849.139,45.024v12.825h-11.418V45.024H849.139z M849.139,72.866v84.459h-11.418V72.866H849.139z"/>
			<path fill="#FFF6F7" d="M931.721,97.577c-1.719-4.69-5.314-9.229-9.539-11.887c-4.225-2.972-9.229-4.224-14.547-4.224
				c-8.443,0-16.107,3.284-20.959,9.854c-5.004,6.412-6.412,15.172-6.566,23.772c0.154,8.604,1.563,17.36,6.566,23.772
				c4.852,6.412,12.516,9.854,20.959,9.854c5.318,0,10.48-1.252,14.859-4.224c4.223-2.658,7.037-6.568,9.07-11.262l11.418,3.284
				c-2.814,6.882-7.352,13.14-13.295,17.05c-6.412,4.223-13.295,6.1-22.053,6.1c-12.67,0-22.992-4.379-30.188-13.764
				c-7.195-9.072-9.385-20.021-9.541-30.813c0.156-11.104,2.502-22.054,9.541-30.97c7.352-9.228,17.518-13.606,30.344-13.606
				c7.977,0,14.545,1.563,20.957,5.476c6.414,4.065,11.889,10.322,14.232,17.83L931.721,97.577z"/>
			<path fill="#FFF6F7" d="M1012.738,97.733c-4.379-11.418-13.451-16.578-24.711-16.734c-10.324-0.313-20.178,4.224-20.178,12.199
				c0,7.039,5.16,9.854,13.764,12.199c4.381,1.252,9.697,2.659,17.361,4.692c14.076,3.754,25.025,11.887,25.025,24.868
				c0,7.195-4.223,15.016-10.793,18.926c-6.568,4.38-14.857,5.631-23.148,5.631c-9.854,0-18.611-2.189-26.275-9.229
				c-4.535-4.379-7.508-9.854-9.229-14.703l10.479-3.439c1.564,4.066,3.598,7.508,6.883,10.637
				c4.691,4.223,11.262,6.256,18.143,6.256c5.787,0,13.141-1.252,17.205-4.065c3.6-2.349,5.631-5.942,5.631-10.167
				c0-8.289-7.977-11.417-17.357-14.076c-7.98-2.348-12.201-3.439-17.361-5.005c-5.318-1.722-11.105-3.754-15.484-7.979
				c-4.225-3.752-5.943-9.539-5.943-14.389c0-8.604,6.1-16.109,13.764-19.551c6.104-2.814,12.199-3.441,17.986-3.285
				c5.943,0,12.201,1.252,17.832,4.066c7.977,4.065,15.17,12.354,17.518,20.332L1012.738,97.733z"/>
		</g>
	</g>
	<g>
		<path fill="#FFF6F7" d="M108.861,67.836c0,3.717,0,54.365,0,57.742c0,29.801-24.159,53.957-53.961,53.957h-0.938
			C24.16,179.536,0,155.379,0,125.579C0,95.78,24.16,71.622,53.961,71.622c9.385,0,18.209,2.396,25.898,6.608v30.638
			c-5.371-7.951-15.578-13.179-25.898-13.179c-16.511,0-29.893,13.382-29.893,29.894s13.385,29.893,29.893,29.893H54.9
			c16.511,0,30.104-13.174,30.104-29.68l-0.021-74.152C84.983,51.635,108.861,51.624,108.861,67.836z"/>
		<g>
			<circle fill="#F85168" cx="53.961" cy="125.579" r="11.887"/>
			<ellipse fill="#F85168" cx="96.878" cy="35.012" rx="11.887" ry="11.887"/>
		</g>
	</g>
</g>
</svg>
