<?xml version="1.0" encoding="utf-8"?>
<!-- Generator: Adobe Illustrator 16.0.0, SVG Export Plug-In . SVG Version: 6.00 Build 0)  -->
<!DOCTYPE svg PUBLIC "-//W3C//DTD SVG 1.1//EN" "http://www.w3.org/Graphics/SVG/1.1/DTD/svg11.dtd">
<svg version="1.1" id="Layer_2" xmlns="http://www.w3.org/2000/svg" xmlns:xlink="http://www.w3.org/1999/xlink" x="0px" y="0px"
	 width="1024px" height="202.661px" viewBox="0 0 1024 202.661" enable-background="new 0 0 1024 202.661" xml:space="preserve">
<g>
	<g>
		<path fill="#09090B" d="M231.644,122.265c0,15.171-4.691,30.655-14.389,40.979c-9.385,10.322-23.147,15.172-37.694,15.172h-38.945
			V65.801h39.258c15.172,0,27.997,5.005,37.069,15.016C227.109,91.608,231.644,106.624,231.644,122.265z M211.781,122.265
			c0-10.949-2.347-21.429-8.915-29.093c-6.256-7.038-13.764-9.229-23.148-9.541l-19.863,0.156v76.797l19.707,0.156
			c9.071-0.313,17.361-3.129,23.148-9.541C209.434,143.536,211.625,133.37,211.781,122.265z"/>
		<path fill="#09090B" d="M270.432,64.081v17.36h-18.769v-17.36H270.432z M270.432,93.954v84.461h-18.769V93.954H270.432z"/>
		<path fill="#09090B" d="M371.469,137.592v40.822h-19.082v-40.041c0-9.854-1.251-19.237-6.726-24.242
			c-3.285-3.284-8.133-5.006-14.077-4.85c-4.223,0.156-7.977,1.408-11.105,3.91c-3.284,2.659-5.631,6.727-6.568,11.73
			c-0.938,4.066-0.938,10.479-0.938,16.58v0.156v36.756h-18.925V93.954h16.579v9.541c0.626-0.625,1.251-1.408,1.877-2.189
			c5.475-6.413,13.92-9.229,21.584-9.541c9.541-0.626,19.396,0.938,27.215,8.445C371.158,109.125,371.469,123.984,371.469,137.592z"
			/>
		<path fill="#09090B" d="M412.136,155.267c3.911,5.161,10.167,7.819,17.049,7.819c5.161,0,9.541-1.25,12.982-3.909
			s5.474-5.318,6.725-8.134l18.613,5.631c-2.972,7.037-8.29,13.451-14.859,17.674c-6.413,4.066-14.701,6.413-22.521,6.413
			c-12.513,0-25.338-4.849-32.846-14.076c-6.883-8.446-10.167-18.926-10.167-29.562c0-12.043,3.284-23.306,10.167-31.596
			c7.664-9.228,19.395-13.92,31.906-13.92c12.356,0,22.366,4.066,30.03,13.295c8.133,9.697,10.323,22.366,9.229,36.6h-60.999
			C407.914,146.508,409.165,151.513,412.136,155.267z M412.292,115.696c-2.502,3.283-3.91,6.881-4.536,10.947h41.761
			c-0.313-4.379-1.407-8.133-3.909-11.574c-3.755-4.691-10.011-7.037-16.424-7.037C422.928,108.032,416.829,110.064,412.292,115.696
			z"/>
		<path fill="#52525C" d="M598.104,126.487l-0.154,51.928h-11.264v-51.459c0-9.383-0.469-15.015-6.881-20.332
			c-3.285-2.973-7.664-4.691-12.199-4.691c-6.102,0-11.73,2.658-15.328,7.193c-3.91,4.692-4.535,9.386-4.535,14.858v2.503v51.928
			h-11.418l0.156-51.459c0-9.383-0.471-15.015-6.883-20.332c-3.285-2.973-7.82-4.691-12.355-4.691
			c-5.944,0-11.575,2.658-15.328,7.193c-3.754,4.693-4.379,9.386-4.379,14.859v54.43h-11.574V93.954h10.323v9.229
			c5.317-7.353,14.39-11.418,23.461-11.418c6.256,0,13.295,1.877,18.455,6.256c3.129,2.503,5.162,5.162,6.568,7.978l1.408-2.188
			c5.318-7.665,14.391-12.044,23.93-12.044c6.258,0,13.297,1.877,18.457,6.256C597.791,105.685,598.104,114.131,598.104,126.487z"/>
		<path fill="#52525C" d="M632.357,159.959c4.85,6.412,12.98,9.854,21.428,9.854c5.943,0,11.418-1.408,16.109-4.38
			c4.381-2.972,7.82-6.882,10.322-11.888l10.793,4.066c-3.439,7.664-8.916,13.607-15.328,17.518
			c-6.412,3.755-14.076,5.632-21.584,5.632c-12.043,0-23.773-4.692-30.813-13.765c-7.039-8.914-9.541-19.863-9.541-30.5
			c0-11.104,2.502-22.365,9.541-31.281c7.352-9.071,18.299-13.606,30.5-13.606c12.043,0,22.365,4.224,29.717,13.451
			s9.385,21.429,9.072,34.409H626.1C626.414,146.976,628.135,154.329,632.357,159.959z M632.514,111.786
			c-3.91,5.004-5.631,11.26-6.256,17.83h54.273c-0.471-7.039-1.877-12.981-5.787-17.986c-4.691-6.258-12.826-9.541-20.959-9.541
			C645.496,102.088,637.52,105.215,632.514,111.786z"/>
		<path fill="#52525C" d="M730.113,147.446c0,7.038-0.471,11.418,1.719,15.172c1.721,3.91,5.787,5.942,10.168,6.412
			c4.379,0.313,9.541,0.156,13.92-0.625v10.01c-5.475,1.408-12.67,1.563-18.143,0.783c-7.51-1.097-12.826-4.225-16.424-10.638
			c-3.129-5.942-2.814-12.513-2.814-20.802v-43.95h-17.988v-9.854h17.988V70.493h11.574v23.461h25.807v9.854h-25.807V147.446
			L730.113,147.446z"/>
		<path fill="#52525C" d="M821.299,93.172v11.104c-3.598-1.407-7.664-2.032-12.201-1.877c-6.725,0.156-12.668,2.503-16.734,6.413
			c-7.977,7.508-8.133,17.205-8.133,29.404v40.197h-11.574V93.954h10.322v12.668c1.721-2.972,4.066-5.474,7.039-7.977
			c5.475-4.691,12.824-6.882,19.863-7.038C813.791,91.608,817.545,92.077,821.299,93.172z"/>
		<path fill="#52525C" d="M849.139,66.114v12.825h-11.418V66.114H849.139z M849.139,93.954v84.461h-11.418V93.954H849.139z"/>
		<path fill="#52525C" d="M931.721,118.667c-1.719-4.691-5.316-9.229-9.539-11.887c-4.225-2.972-9.229-4.224-14.547-4.224
			c-8.445,0-16.109,3.285-20.959,9.854c-5.004,6.412-6.412,15.172-6.568,23.773c0.156,8.604,1.564,17.361,6.568,23.773
			c4.85,6.412,12.514,9.854,20.959,9.854c5.318,0,10.48-1.252,14.859-4.224c4.223-2.658,7.037-6.568,9.07-11.262l11.418,3.285
			c-2.814,6.881-7.352,13.139-13.295,17.049c-6.412,4.223-13.295,6.1-22.053,6.1c-12.67,0-22.992-4.379-30.188-13.764
			c-7.195-9.071-9.385-20.021-9.541-30.813c0.156-11.104,2.502-22.054,9.541-30.97c7.352-9.229,17.518-13.606,30.344-13.606
			c7.977,0,14.545,1.563,20.957,5.474c6.414,4.067,11.889,10.324,14.232,17.832L931.721,118.667z"/>
		<path fill="#52525C" d="M1012.738,118.823c-4.379-11.418-13.451-16.578-24.711-16.734c-10.324-0.313-20.178,4.223-20.178,12.199
			c0,7.039,5.16,9.854,13.764,12.199c4.381,1.252,9.697,2.659,17.361,4.692c14.076,3.754,25.025,11.887,25.025,24.868
			c0,7.195-4.223,15.016-10.793,18.926c-6.568,4.38-14.857,5.631-23.148,5.631c-9.854,0-18.611-2.189-26.275-9.229
			c-4.535-4.379-7.508-9.854-9.229-14.703l10.479-3.439c1.564,4.066,3.598,7.508,6.883,10.637
			c4.691,4.223,11.262,6.256,18.143,6.256c5.787,0,13.139-1.252,17.205-4.066c3.598-2.348,5.631-5.943,5.631-10.167
			c0-8.289-7.977-11.417-17.359-14.076c-7.979-2.347-12.201-3.44-17.361-5.005c-5.318-1.721-11.105-3.754-15.484-7.979
			c-4.225-3.752-5.943-9.539-5.943-14.389c0-8.603,6.1-16.109,13.764-19.552c6.102-2.815,12.199-3.44,17.986-3.284
			c5.943,0,12.201,1.251,17.832,4.066c7.977,4.066,15.17,12.355,17.518,20.332L1012.738,118.823z"/>
	</g>
	<g>
		<path fill="#343A40" d="M108.861,66.609c0,3.718,0,54.367,0,57.742c0,29.802-24.159,53.959-53.961,53.959h-0.938
			C24.16,178.31,0,154.153,0,124.351C0,94.553,24.16,70.394,53.961,70.394c9.384,0,18.209,2.396,25.898,6.61v30.637
			c-5.371-7.951-15.578-13.18-25.898-13.18c-16.511,0-29.893,13.383-29.893,29.895s13.385,29.893,29.893,29.893H54.9
			c16.511,0,30.104-13.176,30.104-29.68l-0.021-74.152C84.983,50.409,108.861,50.396,108.861,66.609z"/>
		<g>
			<circle fill="#F85168" cx="53.961" cy="124.352" r="11.887"/>
			<ellipse fill="#F85168" cx="96.878" cy="33.786" rx="11.887" ry="11.887"/>
		</g>
	</g>
</g>
</svg>
